<svg width="35" height="16" viewBox="0 0 35 16" fill="none" xmlns="http://www.w3.org/2000/svg">
<path fill-rule="evenodd" clip-rule="evenodd" d="M0.207608 14.4955C0.166059 14.0886 -0.0926434 12.9526 0.0351416 12.5857C0.105698 12.3819 0.549416 12.4791 0.719535 12.4352C1.31142 12.2824 1.68145 11.5611 2.39564 11.83C2.85425 12.0025 3.28229 12.2996 3.6774 12.5842C3.80284 12.6751 4.04743 12.9315 4.19717 12.9197C4.66676 12.8821 4.86902 12.3717 5.17241 12.0958C5.4711 11.823 6.00732 11.6426 6.40087 11.5729C7.12054 11.4467 7.65677 12.2236 8.35919 12.2918C8.86406 12.3404 8.87817 11.772 9.23252 11.605C9.55316 11.4545 9.92789 11.5548 10.2524 11.4529C10.4986 11.3761 10.624 11.0798 10.8388 10.9481C11.2457 10.6995 11.8078 10.6313 12.0744 10.2025C12.1614 10.0622 11.7208 9.76977 11.6385 9.71881C11.0638 9.36133 10.6397 8.90036 10.0243 8.61108C9.65899 8.43939 9.1455 8.35238 8.89229 8.01528C8.77469 7.85848 8.3929 7.09413 8.15458 7.15763C7.86608 7.23446 7.70616 7.68053 7.41453 7.8185C7.00766 8.01057 6.02379 8.11797 5.6373 7.84672C5.34096 7.63741 5.22259 7.2666 4.90744 7.06355C4.66363 6.90598 4.37513 6.81896 4.12269 6.67236C4.08663 6.65119 3.88359 6.57123 3.89613 6.53438C4.06703 6.05225 4.65108 5.81706 5.0705 5.6148C5.57301 5.37177 6.20723 4.97431 6.59921 4.57136C7.06723 4.08922 6.37186 3.80229 6.35462 3.30448C6.33972 2.84822 6.84146 2.32845 7.1425 2.02663C7.4796 1.68874 7.98917 1.6127 8.44308 1.59467C8.95187 1.57507 9.38853 1.72089 9.88478 1.78831C10.6734 1.89571 11.5052 1.89414 12.2421 2.27515C12.6482 2.48525 13.0723 3.15709 13.5208 3.21119C13.5412 3.21432 13.5905 2.9611 13.5945 2.93837C13.6407 2.64125 13.5184 2.17793 13.6705 1.92158C13.8163 1.6762 14.1417 1.50686 14.3471 1.31087C14.8833 0.801302 15.1804 0.251749 15.9471 0.0369445C16.7334 -0.182563 17.0682 0.641377 17.7283 0.793465C18.0685 0.871861 18.4095 0.892241 18.7396 1.01611C19.0422 1.12978 19.3903 1.36967 19.7219 1.37203C20.157 1.37516 20.4729 1.04355 20.9307 1.09059C21.5783 1.15644 22.0298 1.4857 22.7221 1.41279C23.713 1.30853 24.4813 0.539467 25.4965 0.474399C26.0892 0.435985 26.5831 0.976914 27.16 1.07099C28.1792 1.23719 29.8122 0.816985 30.7043 1.24581C31.2547 1.51079 31.4475 2.13717 32.0104 2.3896C32.4486 2.58637 32.8743 2.50719 33.3282 2.55501C33.9084 2.61695 34.7064 3.18375 34.9299 3.73173C34.9424 3.76152 34.7276 3.86658 34.7103 3.8752C34.4869 3.98809 34.2219 4.00142 34.0377 4.17938C33.6614 4.54392 33.3125 5.40391 32.6979 5.38667C32.5356 5.38196 32.4141 5.20009 32.2448 5.19382C31.7979 5.17657 31.3048 5.92838 30.8556 6.06401C30.4433 6.18787 29.9251 6.1377 29.6491 6.514C29.2297 7.08629 29.1827 8.25281 28.5249 8.60089C28.1706 8.78826 27.7339 8.76082 27.3521 8.85568C26.9688 8.95132 26.6199 9.17867 26.2091 9.16064C25.7819 9.14104 25.1986 8.76944 24.7729 8.93799C23.7608 9.33938 24.0681 11.3079 23.1172 11.6238C22.7103 11.7595 22.2423 11.6372 21.8229 11.6552C21.4756 11.6701 21.162 11.7924 20.8437 11.576C20.6493 11.4435 20.5364 11.2091 20.4564 10.9959C20.4494 10.9763 20.3874 10.7599 20.3553 10.7568C20.0362 10.7246 19.6646 11.2405 19.3652 11.3314C18.9873 11.4451 18.6267 11.0743 18.281 11.1668C17.9838 11.2452 17.8027 11.4945 17.5597 11.6607C17.2791 11.8527 16.9545 11.9586 16.6613 12.1287C16.0475 12.4838 15.171 13.1361 14.8911 13.8001C14.663 14.3426 15.4728 14.7338 14.8606 15.1767C14.7782 15.2355 14.6842 15.2849 14.5901 15.3241C14.46 15.379 14.3267 15.4221 14.1895 15.4558C13.756 15.5609 13.3483 15.5248 12.9132 15.5765C12.3754 15.6408 11.8494 15.8274 11.3053 15.8439C10.9306 15.8548 10.5605 15.7098 10.1874 15.7302C9.85969 15.7482 9.59785 15.967 9.27721 15.996C8.98715 16.0218 8.43367 15.9191 8.16634 15.8094C7.52898 15.5483 7.63561 14.7048 6.97395 14.5111C6.28563 14.3104 5.83172 14.8969 5.23513 14.9956C4.85647 15.0576 4.3469 14.5268 3.95257 14.4688C3.23839 14.3638 2.52264 14.6138 1.81786 14.5942C1.38747 14.5825 0.641921 14.4351 0.207608 14.4955Z" fill="#1A62B4"/>
</svg>
