<svg width="34" height="20" viewBox="0 0 34 20" fill="none" xmlns="http://www.w3.org/2000/svg">
<g clip-path="url(#clip0_5300_32603)">
<rect width="33.3333" height="20" fill="#E7192E"/>
<g clip-path="url(#clip1_5300_32603)">
<path d="M16.9865 21.8412C23.5337 21.8412 28.8412 16.5337 28.8412 9.98652C28.8412 3.43936 23.5337 -1.86816 16.9865 -1.86816C10.4394 -1.86816 5.13184 3.43936 5.13184 9.98652C5.13184 16.5337 10.4394 21.8412 16.9865 21.8412Z" fill="#E7192E"/>
<path d="M24.7577 9.96739C23.9299 10.1436 22.9926 9.73477 22.0706 9.67023C22.0664 9.60121 22.0669 9.53087 22.0601 9.4629C23.0182 9.27797 24.2434 9.50031 24.6528 8.77612C23.7864 9.10726 22.9531 8.78824 21.9602 8.86806C21.9449 8.79983 21.9262 8.73318 21.9083 8.666C22.9049 8.29824 24.2389 8.30378 24.3575 7.54508C23.7071 7.99582 22.6712 7.84513 21.7229 8.10014C21.6994 8.04139 21.676 7.98291 21.6504 7.92522C22.5875 7.38833 23.8546 7.28717 23.8833 6.41493C23.2969 7.02294 22.2466 6.95893 21.3735 7.39228C21.3438 7.34197 21.314 7.29165 21.2827 7.24239C22.1041 6.50819 23.1744 6.38832 23.2503 5.38831C22.5416 6.15887 21.6849 6.17125 20.9241 6.74238C20.8841 6.69365 20.839 6.64939 20.7971 6.60223C21.4123 5.8488 22.4102 5.5332 22.4449 4.45127C21.9913 5.24527 21.0785 5.45049 20.3841 6.18785C20.3385 6.14701 20.2953 6.10355 20.2481 6.06429C20.7655 5.12514 21.6533 4.77029 21.5124 3.6549C21.2827 4.5353 20.3077 4.799 19.7389 5.69443C19.6781 5.65544 19.6159 5.6183 19.5534 5.58168C19.8606 4.64806 20.7676 4.06559 20.466 3.03687C20.3569 3.96312 19.549 4.2421 19.0442 5.31929C18.9749 5.28873 18.9041 5.26134 18.8332 5.23368C19.006 4.18888 19.8424 3.48919 19.3327 2.57796C19.3195 3.58456 18.6024 4.02766 18.2982 5.06033C18.2157 5.03847 18.1338 5.01423 18.0497 4.99658C18.069 4.05585 18.7321 3.21759 18.1051 2.2816C18.2313 3.38039 17.6372 3.82139 17.4955 4.90965C17.4238 4.90254 17.3503 4.9028 17.2779 4.89858C17.114 3.83008 17.6124 3.02449 16.957 2.22021C17.1433 3.43493 16.668 3.81823 16.7004 4.89858C16.6148 4.90333 16.5284 4.90491 16.4441 4.91386C16.1093 3.93835 16.3661 2.98945 15.5192 2.35668C15.9675 3.31901 15.6814 4.04399 15.8716 5.01054C15.7908 5.02872 15.7115 5.05032 15.6322 5.07219C15.0821 4.10933 15.3232 3.20758 14.3108 2.68492C14.948 3.58456 14.7217 4.30163 15.0803 5.25686C15.0081 5.2861 14.9378 5.31824 14.8674 5.35038C14.1316 4.43151 14.3124 3.55821 13.2093 3.20284C13.9762 4.00211 13.8184 4.7176 14.3677 5.61487C14.3045 5.65281 14.2402 5.6889 14.1788 5.72947C13.3803 5.00001 13.3245 4.12329 12.1967 3.8588C13.0969 4.59695 13.0144 5.30085 13.6983 6.09038C13.643 6.137 13.5908 6.18732 13.5376 6.23632C12.7049 5.65939 12.4124 4.72076 11.2963 4.70074C12.2752 5.23921 12.2979 5.90544 13.1453 6.63806C13.0929 6.69813 13.0415 6.75872 12.992 6.82115C12.0302 6.39544 11.8803 5.62435 10.5368 5.65597C11.7799 6.14148 11.6134 6.68601 12.6569 7.30113C12.6219 7.35777 12.5861 7.41389 12.5531 7.47211C11.5413 7.17284 11.3837 6.4908 9.93482 6.70972C10.9377 6.87779 11.2446 7.57669 12.2857 8.00899C12.2557 8.08038 12.2325 8.15494 12.2056 8.22764C11.2823 8.0896 10.624 7.40335 9.51147 7.8778C10.8281 7.96974 10.9765 8.53244 12.0355 8.78771C12.0197 8.85304 12.0012 8.91732 11.9881 8.98371C11.0262 8.9708 10.2062 8.46447 9.27412 9.03719C10.2012 8.9492 10.8895 9.45711 11.909 9.58303C11.903 9.65969 11.8998 9.73714 11.8974 9.81459C10.8724 9.97502 9.79072 9.54167 9.21484 10.2414C10.065 10.0153 10.8218 10.3886 11.9093 10.387C11.9159 10.4711 11.9248 10.5541 11.9354 10.6368C11.0494 10.8691 9.93192 10.6489 9.36369 11.4737C9.99251 11.0975 11.1385 11.3122 12.0344 11.1742C12.0536 11.254 12.0726 11.3338 12.0955 11.4121C11.3079 11.7464 10.0405 11.8112 9.68165 12.6465C10.3568 12.1531 11.4491 12.2577 12.2736 11.9247C12.3023 11.9943 12.3355 12.0614 12.3671 12.1294C11.614 12.6587 10.2939 12.8963 10.2106 13.7609C10.7504 13.1555 11.8895 13.1049 12.6432 12.6429C12.6822 12.7063 12.7178 12.7725 12.7594 12.8341C12.0824 13.5441 10.8302 13.8362 10.8922 14.7917C11.3134 14.0767 12.3882 13.9163 13.1013 13.2798C13.1485 13.3352 13.1985 13.3879 13.2478 13.4411C12.7146 14.1811 11.5723 14.7185 11.7043 15.6663C12.0726 14.9161 13.0526 14.6028 13.6777 13.8573C13.7302 13.9021 13.7839 13.9453 13.8382 13.988C13.4011 14.8457 12.3927 15.4532 12.6556 16.4245C12.9809 15.5309 13.7905 15.0615 14.2997 14.3102C14.3677 14.3523 14.4349 14.3955 14.5047 14.4348C14.2136 15.3017 13.399 16.0554 13.7133 17.0209C13.8924 16.1302 14.6949 15.5291 15.0363 14.6935C15.0977 14.7187 15.1614 14.739 15.2239 14.7622C15.0853 15.6995 14.3616 16.6363 14.8521 17.4543C14.7863 16.7957 15.5626 15.9253 15.7713 14.93C15.8421 14.9474 15.9117 14.9677 15.9839 14.9822C16.0039 15.9398 15.3935 16.9801 15.9952 17.6829C15.8782 16.7923 16.4683 16.0246 16.5597 15.0607C16.6498 15.0683 16.741 15.0718 16.8321 15.0744C17.0089 15.974 16.4557 16.8655 17.2204 17.7525C17.0202 16.8539 17.3909 16.0117 17.3498 15.0638C17.417 15.0591 17.4844 15.0567 17.5508 15.0494C17.7723 15.9714 17.5363 17.2833 18.2739 17.6432C17.9354 16.8178 18.2418 15.8552 18.0932 14.9585C18.1633 14.9429 18.232 14.9234 18.3011 14.905C18.7555 15.8418 18.6109 17.0228 19.4468 17.3608C19.0247 16.7061 19.2194 15.6334 18.8643 14.7209C18.9302 14.6948 18.9955 14.6679 19.0598 14.6392C19.6338 15.4458 19.7094 16.6958 20.5569 16.8697C20.0016 16.3189 20.0321 15.1684 19.5993 14.3565C19.6575 14.3217 19.7165 14.288 19.7732 14.2509C20.4107 14.9635 20.8061 16.2857 21.6004 16.2435C21.055 15.8352 20.8548 14.7029 20.2468 13.9029C20.3011 13.8576 20.3511 13.8078 20.4036 13.7604C21.1359 14.375 21.7397 15.6081 22.5205 15.4174C21.7347 14.9793 21.555 14.0857 20.8058 13.3539C20.8546 13.2988 20.9044 13.2448 20.9507 13.1874C21.7547 13.6858 22.5171 14.7564 23.29 14.5085C22.6286 14.3465 22.1322 13.3589 21.285 12.7187C21.3235 12.6587 21.3604 12.5975 21.3962 12.5356C22.2958 12.9187 23.3317 13.8807 23.9149 13.4822C23.3527 13.4577 22.5748 12.5351 21.6533 12.0341C21.6831 11.9666 21.7092 11.8976 21.736 11.8288C22.7231 12.0554 23.7682 12.8317 24.382 12.3605C23.6193 12.3201 22.8517 11.6276 21.9223 11.2432C21.9376 11.1826 21.9557 11.1233 21.9689 11.062C22.9423 11.2019 24.1467 11.7137 24.6562 11.1468C23.701 11.1903 22.9805 10.661 22.0608 10.4724C22.0677 10.4005 22.068 10.327 22.0719 10.2543C23.133 10.1715 24.4826 10.6044 24.7577 9.96739Z" fill="#FFFF00"/>
<path d="M21.4312 9.99341C21.4312 12.4415 19.4464 14.4263 16.9983 14.4263C14.5502 14.4263 12.5654 12.4415 12.5654 9.99341C12.5654 7.54529 14.5502 5.56055 16.9983 5.56055C19.4464 5.56055 21.4312 7.54529 21.4312 9.99341Z" fill="#E7192E"/>
<path d="M20.813 10.0027C20.813 12.1049 19.1088 13.8091 17.0066 13.8091C14.9044 13.8091 13.2002 12.1049 13.2002 10.0027C13.2002 7.90047 14.9044 6.19629 17.0066 6.19629C19.1088 6.19629 20.813 7.90047 20.813 10.0027Z" fill="#FFFF00"/>
<path d="M13.7669 7.5084C14.8203 7.48522 16.1323 7.58138 16.9969 8.27369C17.9147 7.70045 19.0011 7.43543 20.1078 7.53817L20.6745 8.5719C19.8528 8.48892 19.0512 8.6051 18.1001 8.98945C19.3127 9.95021 19.9189 11.1894 19.8791 12.6965C19.74 12.8688 19.5214 13.0609 19.3823 13.2332C19.5844 11.769 18.8125 10.1357 17.6926 9.27765C18.6036 10.593 19.147 11.779 18.9948 13.4123C18.8325 13.5085 18.6402 13.6441 18.4779 13.7403C18.7163 12.2993 18.3786 10.6096 17.3151 9.62565C17.9279 10.5269 18.5409 12.1436 18.1599 13.7901C17.9942 13.8399 17.7392 13.979 17.5735 14.0287C18.0008 12.6805 17.7324 10.9942 17.0169 9.98366C16.308 11.0008 16.0759 12.5546 16.4803 13.989C16.2814 13.9392 16.1323 13.8796 15.9336 13.8299C15.642 12.2861 16.0464 10.5435 16.7487 9.63566C16.0332 10.0498 15.3572 11.8254 15.5461 13.641C15.3738 13.5614 15.2413 13.5019 15.069 13.4223C14.8372 12.0672 15.45 10.3048 16.3312 9.28766C15.3306 9.91701 14.519 11.461 14.6615 13.1241C14.509 12.9882 14.3667 12.922 14.2142 12.7861C14.0385 11.3351 14.8767 9.87407 15.8641 8.99946C15.0327 8.62828 14.3203 8.55557 13.29 8.5719C13.4523 8.23734 13.6046 7.84323 13.7669 7.5084Z" fill="#E7192E"/>
</g>
</g>
<defs>
<clipPath id="clip0_5300_32603">
<rect width="33.3333" height="20" fill="white"/>
</clipPath>
<clipPath id="clip1_5300_32603">
<rect width="24" height="24" fill="white" transform="translate(5 -2)"/>
</clipPath>
</defs>
</svg>
