<svg width="108" height="108" viewBox="0 0 108 108" fill="none" xmlns="http://www.w3.org/2000/svg">
<rect x="4" y="4" width="100" height="100" rx="50" stroke="white" stroke-width="8"/>
<circle cx="54" cy="54" r="46" fill="#1560BD"/>
<g clip-path="url(#clip0_5298_32066)">
<path d="M86 22H22V86H86V22Z" fill="#1560BD"/>
<path d="M28.24 26H26V28.24H28.24V26Z" fill="white"/>
<path d="M30.48 26H28.24V28.24H30.48V26Z" fill="white"/>
<path d="M32.72 26H30.48V28.24H32.72V26Z" fill="white"/>
<path d="M34.96 26H32.72V28.24H34.96V26Z" fill="white"/>
<path d="M37.2 26H34.96V28.24H37.2V26Z" fill="white"/>
<path d="M39.44 26H37.2V28.24H39.44V26Z" fill="white"/>
<path d="M41.68 26H39.44V28.24H41.68V26Z" fill="white"/>
<path d="M46.16 26H43.92V28.24H46.16V26Z" fill="white"/>
<path d="M48.4 26H46.16V28.24H48.4V26Z" fill="white"/>
<path d="M52.88 26H50.64V28.24H52.88V26Z" fill="white"/>
<path d="M59.6 26H57.36V28.24H59.6V26Z" fill="white"/>
<path d="M64.08 26H61.84V28.24H64.08V26Z" fill="white"/>
<path d="M68.56 26H66.32V28.24H68.56V26Z" fill="white"/>
<path d="M70.8 26H68.56V28.24H70.8V26Z" fill="white"/>
<path d="M73.04 26H70.8V28.24H73.04V26Z" fill="white"/>
<path d="M75.28 26H73.04V28.24H75.28V26Z" fill="white"/>
<path d="M77.52 26H75.28V28.24H77.52V26Z" fill="white"/>
<path d="M79.76 26H77.52V28.24H79.76V26Z" fill="white"/>
<path d="M82 26H79.76V28.24H82V26Z" fill="white"/>
<path d="M28.24 28.24H26V30.48H28.24V28.24Z" fill="white"/>
<path d="M41.68 28.24H39.44L39.44 30.48H41.68V28.24Z" fill="white"/>
<path d="M48.4 28.24H46.16V30.48H48.4V28.24Z" fill="white"/>
<path d="M55.12 28.24H52.88V30.48H55.12V28.24Z" fill="white"/>
<path d="M57.36 28.24H55.12V30.48H57.36V28.24Z" fill="white"/>
<path d="M59.6 28.24H57.36V30.48H59.6V28.24Z" fill="white"/>
<path d="M64.08 28.24H61.84V30.48H64.08V28.24Z" fill="white"/>
<path d="M68.56 28.24H66.32V30.48H68.56V28.24Z" fill="white"/>
<path d="M82 28.24H79.76V30.48H82V28.24Z" fill="white"/>
<path d="M28.24 30.48H26V32.72H28.24V30.48Z" fill="white"/>
<path d="M32.72 30.48H30.48V32.72H32.72V30.48Z" fill="white"/>
<path d="M34.96 30.48H32.72V32.72H34.96V30.48Z" fill="white"/>
<path d="M37.2 30.48H34.96V32.72H37.2V30.48Z" fill="white"/>
<path d="M41.68 30.48H39.44V32.72H41.68V30.48Z" fill="white"/>
<path d="M46.16 30.48H43.92V32.72H46.16V30.48Z" fill="white"/>
<path d="M48.4 30.48H46.16V32.72H48.4V30.48Z" fill="white"/>
<path d="M50.64 30.48H48.4V32.72H50.64V30.48Z" fill="white"/>
<path d="M52.88 30.48H50.64V32.72H52.88V30.48Z" fill="white"/>
<path d="M55.12 30.48H52.88V32.72H55.12V30.48Z" fill="white"/>
<path d="M57.36 30.48H55.12V32.72H57.36V30.48Z" fill="white"/>
<path d="M59.6 30.48H57.36V32.72H59.6V30.48Z" fill="white"/>
<path d="M61.84 30.48H59.6V32.72H61.84V30.48Z" fill="white"/>
<path d="M68.56 30.48H66.32V32.72H68.56V30.48Z" fill="white"/>
<path d="M73.04 30.48H70.8V32.72H73.04V30.48Z" fill="white"/>
<path d="M75.28 30.48H73.04V32.72H75.28V30.48Z" fill="white"/>
<path d="M77.52 30.48H75.28V32.72H77.52V30.48Z" fill="white"/>
<path d="M82 30.48H79.76V32.72H82V30.48Z" fill="white"/>
<path d="M28.24 32.72H26V34.96H28.24V32.72Z" fill="white"/>
<path d="M32.72 32.72H30.48V34.96H32.72V32.72Z" fill="white"/>
<path d="M34.96 32.72H32.72V34.96H34.96V32.72Z" fill="white"/>
<path d="M37.2 32.72H34.96V34.96H37.2V32.72Z" fill="white"/>
<path d="M41.68 32.72H39.44V34.96H41.68V32.72Z" fill="white"/>
<path d="M57.36 32.72H55.12V34.96H57.36V32.72Z" fill="white"/>
<path d="M59.6 32.72H57.36V34.96H59.6V32.72Z" fill="white"/>
<path d="M61.84 32.72H59.6V34.96H61.84V32.72Z" fill="white"/>
<path d="M64.08 32.72H61.84V34.96H64.08V32.72Z" fill="white"/>
<path d="M68.56 32.72H66.32V34.96H68.56V32.72Z" fill="white"/>
<path d="M73.04 32.72H70.8V34.96H73.04V32.72Z" fill="white"/>
<path d="M75.28 32.72H73.04V34.96H75.28V32.72Z" fill="white"/>
<path d="M77.52 32.72H75.28V34.96H77.52V32.72Z" fill="white"/>
<path d="M82 32.72H79.76V34.96H82V32.72Z" fill="white"/>
<path d="M28.24 34.96H26V37.2H28.24V34.96Z" fill="white"/>
<path d="M32.72 34.96H30.48V37.2H32.72V34.96Z" fill="white"/>
<path d="M34.96 34.96H32.72V37.2H34.96V34.96Z" fill="white"/>
<path d="M37.2 34.96H34.96V37.2H37.2V34.96Z" fill="white"/>
<path d="M41.68 34.96H39.44V37.2H41.68V34.96Z" fill="white"/>
<path d="M50.64 34.96H48.4V37.2H50.64V34.96Z" fill="white"/>
<path d="M52.88 34.96H50.64V37.2H52.88V34.96Z" fill="white"/>
<path d="M59.6 34.96H57.36V37.2H59.6V34.96Z" fill="white"/>
<path d="M61.84 34.96H59.6V37.2H61.84V34.96Z" fill="white"/>
<path d="M68.56 34.96H66.32V37.2H68.56V34.96Z" fill="white"/>
<path d="M73.04 34.96H70.8V37.2H73.04V34.96Z" fill="white"/>
<path d="M75.28 34.96H73.04V37.2H75.28V34.96Z" fill="white"/>
<path d="M77.52 34.96H75.28V37.2H77.52V34.96Z" fill="white"/>
<path d="M82 34.96H79.76V37.2H82V34.96Z" fill="white"/>
<path d="M28.24 37.2H26V39.44H28.24V37.2Z" fill="white"/>
<path d="M41.68 37.2H39.44V39.44H41.68V37.2Z" fill="white"/>
<path d="M48.4 37.2H46.16V39.44H48.4V37.2Z" fill="white"/>
<path d="M52.88 37.2H50.64V39.44H52.88V37.2Z" fill="white"/>
<path d="M59.6 37.2H57.36V39.44H59.6V37.2Z" fill="white"/>
<path d="M61.84 37.2H59.6V39.44H61.84V37.2Z" fill="white"/>
<path d="M64.08 37.2H61.84V39.44H64.08V37.2Z" fill="white"/>
<path d="M68.56 37.2H66.32V39.44H68.56V37.2Z" fill="white"/>
<path d="M82 37.2H79.76V39.44H82V37.2Z" fill="white"/>
<path d="M28.24 39.44H26V41.68H28.24V39.44Z" fill="white"/>
<path d="M30.48 39.44L28.24 39.44V41.68H30.48V39.44Z" fill="white"/>
<path d="M32.72 39.44H30.48V41.68H32.72V39.44Z" fill="white"/>
<path d="M34.96 39.44H32.72V41.68H34.96V39.44Z" fill="white"/>
<path d="M37.2 39.44H34.96V41.68H37.2V39.44Z" fill="white"/>
<path d="M39.44 39.44L37.2 39.44V41.68H39.44L39.44 39.44Z" fill="white"/>
<path d="M41.68 39.44H39.44L39.44 41.68H41.68V39.44Z" fill="white"/>
<path d="M46.16 39.44L43.92 39.44V41.68H46.16V39.44Z" fill="white"/>
<path d="M50.64 39.44H48.4V41.68H50.64V39.44Z" fill="white"/>
<path d="M55.12 39.44L52.88 39.44V41.68H55.12V39.44Z" fill="white"/>
<path d="M59.6 39.44H57.36V41.68H59.6V39.44Z" fill="white"/>
<path d="M64.08 39.44H61.84V41.68H64.08V39.44Z" fill="white"/>
<path d="M68.56 39.44H66.32V41.68H68.56V39.44Z" fill="white"/>
<path d="M70.8 39.44L68.56 39.44V41.68H70.8V39.44Z" fill="white"/>
<path d="M73.04 39.44H70.8V41.68H73.04V39.44Z" fill="white"/>
<path d="M75.28 39.44H73.04V41.68H75.28V39.44Z" fill="white"/>
<path d="M77.52 39.44H75.28V41.68H77.52V39.44Z" fill="white"/>
<path d="M79.76 39.44L77.52 39.44V41.68H79.76V39.44Z" fill="white"/>
<path d="M82 39.44H79.76V41.68H82V39.44Z" fill="white"/>
<path d="M46.16 41.68H43.92V43.92H46.16V41.68Z" fill="white"/>
<path d="M50.64 41.68H48.4V43.92H50.64V41.68Z" fill="white"/>
<path d="M57.36 41.68H55.12V43.92H57.36V41.68Z" fill="white"/>
<path d="M59.6 41.68H57.36V43.92H59.6V41.68Z" fill="white"/>
<path d="M61.84 41.68H59.6V43.92H61.84V41.68Z" fill="white"/>
<path d="M28.24 43.92H26V46.16H28.24V43.92Z" fill="white"/>
<path d="M32.72 43.92H30.48V46.16H32.72V43.92Z" fill="white"/>
<path d="M39.44 43.92H37.2V46.16H39.44V43.92Z" fill="white"/>
<path d="M41.68 43.92H39.44V46.16H41.68V43.92Z" fill="white"/>
<path d="M48.4 43.92H46.16V46.16H48.4V43.92Z" fill="white"/>
<path d="M50.64 43.92H48.4V46.16H50.64V43.92Z" fill="white"/>
<path d="M52.88 43.92H50.64V46.16H52.88V43.92Z" fill="white"/>
<path d="M57.36 43.92H55.12V46.16H57.36V43.92Z" fill="white"/>
<path d="M59.6 43.92H57.36V46.16H59.6V43.92Z" fill="white"/>
<path d="M64.08 43.92H61.84V46.16H64.08V43.92Z" fill="white"/>
<path d="M66.32 43.92H64.08V46.16H66.32V43.92Z" fill="white"/>
<path d="M68.56 43.92H66.32V46.16H68.56V43.92Z" fill="white"/>
<path d="M77.52 43.92H75.28V46.16H77.52V43.92Z" fill="white"/>
<path d="M82 43.92H79.76V46.16H82V43.92Z" fill="white"/>
<path d="M30.48 46.16H28.24V48.4H30.48V46.16Z" fill="white"/>
<path d="M32.72 46.16H30.48V48.4H32.72V46.16Z" fill="white"/>
<path d="M34.96 46.16H32.72V48.4H34.96V46.16Z" fill="white"/>
<path d="M39.44 46.16H37.2V48.4H39.44V46.16Z" fill="white"/>
<path d="M46.16 46.16H43.92V48.4H46.16V46.16Z" fill="white"/>
<path d="M48.4 46.16H46.16V48.4H48.4V46.16Z" fill="white"/>
<path d="M50.64 46.16H48.4V48.4H50.64V46.16Z" fill="white"/>
<path d="M52.88 46.16H50.64V48.4H52.88V46.16Z" fill="white"/>
<path d="M55.12 46.16H52.88V48.4H55.12V46.16Z" fill="white"/>
<path d="M61.84 46.16H59.6L59.6 48.4H61.84V46.16Z" fill="white"/>
<path d="M70.8 46.16H68.56V48.4H70.8V46.16Z" fill="white"/>
<path d="M75.28 46.16H73.04V48.4H75.28V46.16Z" fill="white"/>
<path d="M82 46.16H79.76V48.4H82V46.16Z" fill="white"/>
<path d="M28.24 48.4H26V50.64H28.24V48.4Z" fill="white"/>
<path d="M34.96 48.4H32.72V50.64H34.96V48.4Z" fill="white"/>
<path d="M41.68 48.4H39.44L39.44 50.64H41.68V48.4Z" fill="white"/>
<path d="M43.92 48.4H41.68V50.64H43.92V48.4Z" fill="white"/>
<path d="M50.64 48.4H48.4V50.64H50.64V48.4Z" fill="white"/>
<path d="M55.12 48.4H52.88V50.64H55.12V48.4Z" fill="white"/>
<path d="M57.36 48.4H55.12V50.64H57.36V48.4Z" fill="white"/>
<path d="M59.6 48.4H57.36V50.64H59.6L59.6 48.4Z" fill="white"/>
<path d="M64.08 48.4H61.84V50.64H64.08V48.4Z" fill="white"/>
<path d="M66.32 48.4H64.08V50.64H66.32V48.4Z" fill="white"/>
<path d="M73.04 48.4H70.8V50.64H73.04V48.4Z" fill="white"/>
<path d="M75.28 48.4H73.04V50.64H75.28V48.4Z" fill="white"/>
<path d="M79.76 48.4H77.52V50.64H79.76V48.4Z" fill="white"/>
<path d="M30.48 50.64H28.24V52.88H30.48V50.64Z" fill="white"/>
<path d="M43.92 50.64H41.68V52.88H43.92V50.64Z" fill="white"/>
<path d="M46.16 50.64H43.92V52.88H46.16V50.64Z" fill="white"/>
<path d="M52.88 50.64H50.64V52.88H52.88V50.64Z" fill="white"/>
<path d="M55.12 50.64H52.88V52.88H55.12V50.64Z" fill="white"/>
<path d="M59.6 50.64H57.36V52.88H59.6V50.64Z" fill="white"/>
<path d="M64.08 50.64H61.84V52.88H64.08V50.64Z" fill="white"/>
<path d="M70.8 50.64H68.56V52.88H70.8V50.64Z" fill="white"/>
<path d="M77.52 50.64H75.28V52.88H77.52V50.64Z" fill="white"/>
<path d="M82 50.64H79.76V52.88H82V50.64Z" fill="white"/>
<path d="M28.24 52.88H26V55.12H28.24V52.88Z" fill="white"/>
<path d="M30.48 52.88H28.24V55.12H30.48V52.88Z" fill="white"/>
<path d="M37.2 52.88H34.96V55.12H37.2V52.88Z" fill="white"/>
<path d="M39.44 52.88H37.2V55.12H39.44V52.88Z" fill="white"/>
<path d="M41.68 52.88H39.44V55.12H41.68V52.88Z" fill="white"/>
<path d="M48.4 52.88H46.16V55.12H48.4V52.88Z" fill="white"/>
<path d="M52.88 52.88H50.64V55.12H52.88V52.88Z" fill="white"/>
<path d="M64.08 52.88H61.84V55.12H64.08V52.88Z" fill="white"/>
<path d="M66.32 52.88H64.08V55.12H66.32V52.88Z" fill="white"/>
<path d="M68.56 52.88H66.32V55.12H68.56V52.88Z" fill="white"/>
<path d="M70.8 52.88H68.56V55.12H70.8V52.88Z" fill="white"/>
<path d="M82 52.88H79.76V55.12H82V52.88Z" fill="white"/>
<path d="M28.24 55.12H26V57.36H28.24V55.12Z" fill="white"/>
<path d="M32.72 55.12H30.48V57.36H32.72V55.12Z" fill="white"/>
<path d="M39.44 55.12H37.2V57.36H39.44V55.12Z" fill="white"/>
<path d="M43.92 55.12H41.68V57.36H43.92V55.12Z" fill="white"/>
<path d="M46.16 55.12H43.92V57.36H46.16V55.12Z" fill="white"/>
<path d="M50.64 55.12H48.4V57.36H50.64V55.12Z" fill="white"/>
<path d="M55.12 55.12H52.88V57.36H55.12V55.12Z" fill="white"/>
<path d="M57.36 55.12H55.12V57.36H57.36V55.12Z" fill="white"/>
<path d="M61.84 55.12H59.6V57.36H61.84V55.12Z" fill="white"/>
<path d="M64.08 55.12H61.84V57.36H64.08V55.12Z" fill="white"/>
<path d="M68.56 55.12H66.32V57.36H68.56V55.12Z" fill="white"/>
<path d="M73.04 55.12H70.8V57.36H73.04V55.12Z" fill="white"/>
<path d="M75.28 55.12H73.04V57.36H75.28V55.12Z" fill="white"/>
<path d="M79.76 55.12H77.52V57.36H79.76V55.12Z" fill="white"/>
<path d="M82 55.12H79.76V57.36H82V55.12Z" fill="white"/>
<path d="M28.24 57.36H26V59.6H28.24V57.36Z" fill="white"/>
<path d="M39.44 57.36H37.2V59.6H39.44V57.36Z" fill="white"/>
<path d="M41.68 57.36H39.44V59.6H41.68V57.36Z" fill="white"/>
<path d="M50.64 57.36H48.4V59.6H50.64V57.36Z" fill="white"/>
<path d="M52.88 57.36H50.64V59.6H52.88V57.36Z" fill="white"/>
<path d="M55.12 57.36H52.88V59.6H55.12V57.36Z" fill="white"/>
<path d="M57.36 57.36H55.12V59.6H57.36V57.36Z" fill="white"/>
<path d="M68.56 57.36H66.32V59.6H68.56V57.36Z" fill="white"/>
<path d="M70.8 57.36H68.56V59.6H70.8V57.36Z" fill="white"/>
<path d="M73.04 57.36H70.8V59.6H73.04V57.36Z" fill="white"/>
<path d="M75.28 57.36H73.04V59.6H75.28V57.36Z" fill="white"/>
<path d="M28.24 59.6H26V61.84H28.24V59.6Z" fill="white"/>
<path d="M30.48 59.6L28.24 59.6V61.84H30.48V59.6Z" fill="white"/>
<path d="M34.96 59.6H32.72V61.84H34.96V59.6Z" fill="white"/>
<path d="M37.2 59.6L34.96 59.6V61.84H37.2V59.6Z" fill="white"/>
<path d="M46.16 59.6H43.92V61.84H46.16V59.6Z" fill="white"/>
<path d="M52.88 59.6H50.64V61.84H52.88V59.6Z" fill="white"/>
<path d="M59.6 59.6L57.36 59.6V61.84H59.6V59.6Z" fill="white"/>
<path d="M61.84 59.6H59.6V61.84H61.84V59.6Z" fill="white"/>
<path d="M66.32 59.6L64.08 59.6V61.84H66.32V59.6Z" fill="white"/>
<path d="M70.8 59.6H68.56V61.84H70.8V59.6Z" fill="white"/>
<path d="M73.04 59.6H70.8V61.84H73.04V59.6Z" fill="white"/>
<path d="M75.28 59.6H73.04V61.84H75.28V59.6Z" fill="white"/>
<path d="M77.52 59.6L75.28 59.6V61.84H77.52V59.6Z" fill="white"/>
<path d="M79.76 59.6H77.52V61.84H79.76V59.6Z" fill="white"/>
<path d="M34.96 61.84H32.72V64.08H34.96V61.84Z" fill="white"/>
<path d="M37.2 61.84H34.96V64.08H37.2V61.84Z" fill="white"/>
<path d="M39.44 61.84H37.2V64.08H39.44V61.84Z" fill="white"/>
<path d="M41.68 61.84H39.44V64.08H41.68V61.84Z" fill="white"/>
<path d="M46.16 61.84H43.92V64.08H46.16V61.84Z" fill="white"/>
<path d="M48.4 61.84H46.16V64.08H48.4V61.84Z" fill="white"/>
<path d="M50.64 61.84H48.4V64.08H50.64V61.84Z" fill="white"/>
<path d="M52.88 61.84H50.64V64.08H52.88V61.84Z" fill="white"/>
<path d="M55.12 61.84H52.88V64.08H55.12V61.84Z" fill="white"/>
<path d="M59.6 61.84H57.36V64.08H59.6V61.84Z" fill="white"/>
<path d="M64.08 61.84H61.84V64.08H64.08V61.84Z" fill="white"/>
<path d="M66.32 61.84H64.08V64.08H66.32V61.84Z" fill="white"/>
<path d="M68.56 61.84H66.32V64.08H68.56V61.84Z" fill="white"/>
<path d="M70.8 61.84H68.56V64.08H70.8V61.84Z" fill="white"/>
<path d="M73.04 61.84H70.8V64.08H73.04V61.84Z" fill="white"/>
<path d="M79.76 61.84H77.52V64.08H79.76V61.84Z" fill="white"/>
<path d="M82 61.84H79.76V64.08H82V61.84Z" fill="white"/>
<path d="M48.4 64.08H46.16V66.32H48.4V64.08Z" fill="white"/>
<path d="M50.64 64.08H48.4V66.32H50.64V64.08Z" fill="white"/>
<path d="M52.88 64.08H50.64V66.32H52.88V64.08Z" fill="white"/>
<path d="M57.36 64.08H55.12V66.32H57.36V64.08Z" fill="white"/>
<path d="M59.6 64.08H57.36V66.32H59.6V64.08Z" fill="white"/>
<path d="M64.08 64.08H61.84V66.32H64.08V64.08Z" fill="white"/>
<path d="M73.04 64.08H70.8V66.32H73.04V64.08Z" fill="white"/>
<path d="M75.28 64.08H73.04V66.32H75.28V64.08Z" fill="white"/>
<path d="M77.52 64.08H75.28V66.32H77.52V64.08Z" fill="white"/>
<path d="M79.76 64.08H77.52V66.32H79.76V64.08Z" fill="white"/>
<path d="M28.24 66.32H26V68.56H28.24V66.32Z" fill="white"/>
<path d="M30.48 66.32H28.24V68.56H30.48V66.32Z" fill="white"/>
<path d="M32.72 66.32H30.48V68.56H32.72V66.32Z" fill="white"/>
<path d="M34.96 66.32H32.72V68.56H34.96V66.32Z" fill="white"/>
<path d="M37.2 66.32H34.96V68.56H37.2V66.32Z" fill="white"/>
<path d="M39.44 66.32H37.2V68.56H39.44V66.32Z" fill="white"/>
<path d="M41.68 66.32H39.44V68.56H41.68V66.32Z" fill="white"/>
<path d="M48.4 66.32H46.16V68.56H48.4V66.32Z" fill="white"/>
<path d="M55.12 66.32H52.88V68.56H55.12V66.32Z" fill="white"/>
<path d="M57.36 66.32H55.12V68.56H57.36V66.32Z" fill="white"/>
<path d="M59.6 66.32H57.36V68.56H59.6V66.32Z" fill="white"/>
<path d="M61.84 66.32H59.6V68.56H61.84V66.32Z" fill="white"/>
<path d="M64.08 66.32H61.84V68.56H64.08V66.32Z" fill="white"/>
<path d="M68.56 66.32H66.32V68.56H68.56V66.32Z" fill="white"/>
<path d="M73.04 66.32H70.8V68.56H73.04V66.32Z" fill="white"/>
<path d="M28.24 68.56H26V70.8H28.24V68.56Z" fill="white"/>
<path d="M41.68 68.56H39.44L39.44 70.8H41.68V68.56Z" fill="white"/>
<path d="M46.16 68.56H43.92V70.8H46.16V68.56Z" fill="white"/>
<path d="M48.4 68.56H46.16V70.8H48.4V68.56Z" fill="white"/>
<path d="M55.12 68.56H52.88V70.8H55.12V68.56Z" fill="white"/>
<path d="M57.36 68.56H55.12V70.8H57.36V68.56Z" fill="white"/>
<path d="M59.6 68.56H57.36V70.8H59.6V68.56Z" fill="white"/>
<path d="M64.08 68.56H61.84V70.8H64.08V68.56Z" fill="white"/>
<path d="M73.04 68.56H70.8V70.8H73.04V68.56Z" fill="white"/>
<path d="M77.52 68.56H75.28V70.8H77.52V68.56Z" fill="white"/>
<path d="M82 68.56H79.76V70.8H82V68.56Z" fill="white"/>
<path d="M28.24 70.8H26V73.04H28.24V70.8Z" fill="white"/>
<path d="M32.72 70.8H30.48V73.04H32.72V70.8Z" fill="white"/>
<path d="M34.96 70.8H32.72V73.04H34.96V70.8Z" fill="white"/>
<path d="M37.2 70.8H34.96V73.04H37.2V70.8Z" fill="white"/>
<path d="M41.68 70.8H39.44V73.04H41.68V70.8Z" fill="white"/>
<path d="M52.88 70.8H50.64V73.04H52.88V70.8Z" fill="white"/>
<path d="M55.12 70.8H52.88V73.04H55.12V70.8Z" fill="white"/>
<path d="M59.6 70.8H57.36V73.04H59.6V70.8Z" fill="white"/>
<path d="M64.08 70.8H61.84V73.04H64.08V70.8Z" fill="white"/>
<path d="M66.32 70.8H64.08V73.04H66.32V70.8Z" fill="white"/>
<path d="M68.56 70.8H66.32V73.04H68.56V70.8Z" fill="white"/>
<path d="M70.8 70.8H68.56V73.04H70.8V70.8Z" fill="white"/>
<path d="M73.04 70.8H70.8V73.04H73.04V70.8Z" fill="white"/>
<path d="M75.28 70.8H73.04V73.04H75.28V70.8Z" fill="white"/>
<path d="M77.52 70.8H75.28V73.04H77.52V70.8Z" fill="white"/>
<path d="M82 70.8H79.76V73.04H82V70.8Z" fill="white"/>
<path d="M28.24 73.04H26V75.28H28.24V73.04Z" fill="white"/>
<path d="M32.72 73.04H30.48V75.28H32.72V73.04Z" fill="white"/>
<path d="M34.96 73.04H32.72V75.28H34.96V73.04Z" fill="white"/>
<path d="M37.2 73.04H34.96V75.28H37.2V73.04Z" fill="white"/>
<path d="M41.68 73.04H39.44V75.28H41.68V73.04Z" fill="white"/>
<path d="M52.88 73.04H50.64V75.28H52.88V73.04Z" fill="white"/>
<path d="M61.84 73.04H59.6L59.6 75.28H61.84V73.04Z" fill="white"/>
<path d="M64.08 73.04H61.84V75.28H64.08V73.04Z" fill="white"/>
<path d="M70.8 73.04H68.56V75.28H70.8V73.04Z" fill="white"/>
<path d="M73.04 73.04H70.8V75.28H73.04V73.04Z" fill="white"/>
<path d="M82 73.04H79.76V75.28H82V73.04Z" fill="white"/>
<path d="M28.24 75.28H26V77.52H28.24V75.28Z" fill="white"/>
<path d="M32.72 75.28H30.48V77.52H32.72V75.28Z" fill="white"/>
<path d="M34.96 75.28H32.72V77.52H34.96V75.28Z" fill="white"/>
<path d="M37.2 75.28H34.96V77.52H37.2V75.28Z" fill="white"/>
<path d="M41.68 75.28H39.44V77.52H41.68V75.28Z" fill="white"/>
<path d="M46.16 75.28H43.92V77.52H46.16V75.28Z" fill="white"/>
<path d="M66.32 75.28H64.08V77.52H66.32V75.28Z" fill="white"/>
<path d="M68.56 75.28H66.32V77.52H68.56V75.28Z" fill="white"/>
<path d="M77.52 75.28H75.28V77.52H77.52V75.28Z" fill="white"/>
<path d="M28.24 77.52H26V79.76H28.24V77.52Z" fill="white"/>
<path d="M41.68 77.52H39.44V79.76H41.68V77.52Z" fill="white"/>
<path d="M48.4 77.52H46.16V79.76H48.4V77.52Z" fill="white"/>
<path d="M52.88 77.52H50.64V79.76H52.88V77.52Z" fill="white"/>
<path d="M57.36 77.52H55.12V79.76H57.36V77.52Z" fill="white"/>
<path d="M64.08 77.52H61.84V79.76H64.08V77.52Z" fill="white"/>
<path d="M66.32 77.52H64.08V79.76H66.32V77.52Z" fill="white"/>
<path d="M77.52 77.52H75.28V79.76H77.52V77.52Z" fill="white"/>
<path d="M28.24 79.76H26V82H28.24V79.76Z" fill="white"/>
<path d="M30.48 79.76H28.24V82H30.48V79.76Z" fill="white"/>
<path d="M32.72 79.76H30.48V82H32.72V79.76Z" fill="white"/>
<path d="M34.96 79.76H32.72V82H34.96V79.76Z" fill="white"/>
<path d="M37.2 79.76H34.96V82H37.2V79.76Z" fill="white"/>
<path d="M39.44 79.76H37.2V82H39.44L39.44 79.76Z" fill="white"/>
<path d="M41.68 79.76H39.44L39.44 82H41.68V79.76Z" fill="white"/>
<path d="M46.16 79.76H43.92V82H46.16V79.76Z" fill="white"/>
<path d="M48.4 79.76H46.16V82H48.4V79.76Z" fill="white"/>
<path d="M50.64 79.76H48.4V82H50.64V79.76Z" fill="white"/>
<path d="M55.12 79.76H52.88V82H55.12V79.76Z" fill="white"/>
<path d="M57.36 79.76H55.12V82H57.36V79.76Z" fill="white"/>
<path d="M59.6 79.76H57.36V82H59.6V79.76Z" fill="white"/>
<path d="M61.84 79.76H59.6V82H61.84V79.76Z" fill="white"/>
<path d="M64.08 79.76H61.84V82H64.08V79.76Z" fill="white"/>
<path d="M66.32 79.76H64.08V82H66.32V79.76Z" fill="white"/>
<path d="M68.56 79.76H66.32V82H68.56V79.76Z" fill="white"/>
<path d="M70.8 79.76H68.56V82H70.8V79.76Z" fill="white"/>
<path d="M77.52 79.76H75.28V82H77.52V79.76Z" fill="white"/>
<path d="M82 79.76H79.76V82H82V79.76Z" fill="white"/>
</g>
<defs>
<clipPath id="clip0_5298_32066">
<rect width="64" height="64" fill="white" transform="translate(22 22)"/>
</clipPath>
</defs>
</svg>
