<svg width="238" height="88" viewBox="0 0 238 88" fill="none" xmlns="http://www.w3.org/2000/svg">
<path d="M5.21777 87.0773C6.95457 79.0451 14.7792 74.8146 22.3244 77.3668C25.2374 78.3522 28.5642 78.4429 31.6909 78.3783C34.975 78.3106 38.3598 77.9436 41.4815 76.9901C43.583 76.3482 45.9773 74.867 47.0699 73.0552C50.4383 67.4694 60.2123 64.4131 64.7665 68.7049C69.2491 72.9293 74.0126 72.3065 79.1128 71.6621C79.9306 71.5587 80.8155 71.0217 81.5298 71.2112C89.5618 73.3428 93.3741 67.6288 97.5096 62.6387C99.9708 59.6688 96.8431 49.2607 92.6899 46.1155C89.0118 43.3301 86.8499 36.4353 88.3829 32.379C89.5965 29.1678 95.7333 25.8496 99.9226 26.1394C105.333 26.5136 110.411 33.351 108.76 38.732C107.191 43.8447 106.348 48.7477 107.239 54.1673C108.073 59.2437 111.673 61.789 114.559 65.3091C118.621 70.2649 123.219 71.7056 129.235 71.2084C134.207 70.7976 136.577 68.9903 137.184 63.832C137.93 57.4879 136.371 51.7834 130.736 48.3952C126.091 45.6019 126.103 41.4428 126.716 37.4217C128.243 27.3971 125.566 21.3015 116.683 16.8008C112.913 14.8909 111.439 11.0309 111.989 7.80401C112.726 3.46994 116.235 0.71685 121.127 0.088394C125.47 -0.469445 127.832 1.65672 129.035 5.23158C130.375 9.21841 130.498 13.7447 132.403 17.3803C135.029 22.3936 136.584 28.2671 142.733 31.0706C147.454 33.2233 148.343 38.1133 146.745 42.6649C144.631 48.691 144.955 54.4055 147.411 60.0481C148.304 62.0986 149.923 63.8768 151.409 65.6079C152.251 66.5873 153.976 66.9884 154.484 68.0441C158.142 75.6481 165.415 74.2359 171.716 75.0766C174.881 75.4989 175.744 74.0044 175.643 70.5808C175.41 62.7061 170.253 57.6788 166.056 52.0773C163.742 48.9887 163.756 46.1519 165.442 42.8491C168.032 37.7756 172.796 38.4005 176.58 39.516C178.906 40.2018 182.184 44.214 181.854 46.205C180.52 54.2492 184.513 61.196 185.3 68.7213C185.394 69.6235 186.41 70.4965 187.134 71.2534C189.639 73.8725 191.8 77.1684 194.843 78.842C199.174 81.2244 204.078 82.7784 208.915 83.9533C211.988 84.6998 215.412 83.8665 218.625 84.2249C220.506 84.4348 222.281 85.5943 223.692 86.7212C207.257 87.1198 191.235 87.1236 174.816 87.1235C173.362 87.1058 172.305 87.0921 171.156 86.7141C167.516 85.5748 163.89 85.0453 160.442 83.9533C157.231 82.9363 155.83 84.1535 154.686 87.0583C148.232 87.0711 142.242 87.0652 136.197 86.7052C133.495 79.2094 127.318 81.4867 122.149 81.1354C117.824 80.8414 115.499 83.3273 113.707 87.1071C106.914 87.1053 100.587 87.0952 94.2047 86.7365C92.2845 82.5989 89.4537 80.5519 85.0303 81.1208C81.7643 81.541 78.4831 81.9875 75.1989 82.0827C71.6178 82.1867 69.3302 83.7501 67.7092 87.0968C46.5676 87.0985 25.8927 87.0879 5.21777 87.0773Z" fill="#2E71C2"/>
<path d="M58.7864 51.4766C49.5306 46.7731 40.6862 50.3092 31.8146 51.3813C25.175 52.1836 19.1525 53.6983 13.7737 58.4295C10.7523 61.0872 6.05412 60.56 2.52653 57.0381C-0.758898 53.7581 -0.403154 50.1121 1.13107 46.4978C3.04172 41.9967 7.50381 41.01 11.266 42.3512C19.9245 45.4379 27.7756 41.3827 35.9634 40.6306C41.5101 40.1211 46.9848 38.8272 53.8673 37.6485C51.0159 33.7287 48.191 30.6369 46.3495 27.0414C45.076 24.555 44.3319 21.2183 44.8327 18.5385C45.5784 14.5489 49.626 14.3716 52.5167 15.3534C54.7363 16.1074 57.7982 18.6436 57.918 20.5487C58.3424 27.2934 62.1264 31.7929 66.5858 35.898C70.3497 39.3629 69.9377 43.7026 68.6733 47.3946C67.3451 51.2728 63.439 52.6502 58.7864 51.4766Z" fill="#2E70C6"/>
<path d="M230.128 63.1192C233.358 64.9159 237.392 65.7895 237.096 70.1699C236.967 72.0646 236.039 74.7217 234.633 75.4891C233.157 76.2942 230.188 75.9381 228.711 74.8975C221.687 69.9476 214.406 66.4215 205.466 67.053C201.438 67.3376 198.764 65.2535 199.216 60.6984C200.028 52.5369 198.275 45.32 192.422 39.1595C189.836 36.4387 190.82 32.0341 193.677 30.1495C197.384 27.7048 199.887 29.7722 201.365 32.745C204.27 38.5886 207.049 44.5542 209.145 50.7193C210.486 54.6666 212.851 56.7375 216.466 58.0515C220.913 59.668 225.318 61.3978 230.128 63.1192Z" fill="#2E70C6"/>
<path d="M85.4922 1.16121C90.5614 0.456922 93.5121 3.59868 94.6583 6.98063C95.622 9.82425 95.2579 14.4256 93.4713 16.5869C90.7988 19.8198 86.4111 21.0935 81.8577 18.5676C77.898 16.3711 76.6441 7.95196 80.1948 4.34578C81.5267 2.99315 83.4408 2.21383 85.4922 1.16121Z" fill="#2E70C6"/>
<path d="M158.625 20.7191C152.127 23.3287 148.082 21.9225 146.648 17.004C145.479 12.994 147.095 10.4547 150.433 8.25654C153.7 6.10541 156.206 7.32767 158.467 9.46879C161.041 11.9056 162.359 14.8839 160.344 18.4017C159.932 19.1211 159.397 19.7701 158.625 20.7191Z" fill="#2E70C6"/>
</svg>
